<svg width="17" height="16" viewBox="0 0 17 16" fill="none" xmlns="http://www.w3.org/2000/svg">
<path d="M8.66664 8C7.56664 8 6.62497 7.60833 5.84164 6.825C5.05831 6.04167 4.66664 5.1 4.66664 4C4.66664 2.9 5.05831 1.95833 5.84164 1.175C6.62497 0.391667 7.56664 0 8.66664 0C9.76664 0 10.7083 0.391667 11.4916 1.175C12.275 1.95833 12.6666 2.9 12.6666 4C12.6666 5.1 12.275 6.04167 11.4916 6.825C10.7083 7.60833 9.76664 8 8.66664 8ZM0.666641 16V13.2C0.666641 12.6333 0.812475 12.1125 1.10414 11.6375C1.39581 11.1625 1.78331 10.8 2.26664 10.55C3.29997 10.0333 4.34997 9.64583 5.41664 9.3875C6.48331 9.12917 7.56664 9 8.66664 9C9.76664 9 10.85 9.12917 11.9166 9.3875C12.9833 9.64583 14.0333 10.0333 15.0666 10.55C15.55 10.8 15.9375 11.1625 16.2291 11.6375C16.5208 12.1125 16.6666 12.6333 16.6666 13.2V16H0.666641ZM2.66664 14H14.6666V13.2C14.6666 13.0167 14.6208 12.85 14.5291 12.7C14.4375 12.55 14.3166 12.4333 14.1666 12.35C13.2666 11.9 12.3583 11.5625 11.4416 11.3375C10.525 11.1125 9.59997 11 8.66664 11C7.73331 11 6.80831 11.1125 5.89164 11.3375C4.97497 11.5625 4.06664 11.9 3.16664 12.35C3.01664 12.4333 2.89581 12.55 2.80414 12.7C2.71247 12.85 2.66664 13.0167 2.66664 13.2V14ZM8.66664 6C9.21664 6 9.68747 5.80417 10.0791 5.4125C10.4708 5.02083 10.6666 4.55 10.6666 4C10.6666 3.45 10.4708 2.97917 10.0791 2.5875C9.68747 2.19583 9.21664 2 8.66664 2C8.11664 2 7.64581 2.19583 7.25414 2.5875C6.86247 2.97917 6.66664 3.45 6.66664 4C6.66664 4.55 6.86247 5.02083 7.25414 5.4125C7.64581 5.80417 8.11664 6 8.66664 6Z" fill="#878787"/>
</svg>
